PathFileType	4	(X/Y/Z)	/Users/itak/Documents/Research/Walk-IL/dataset/trc/00283_00010.trc
DataRate	CameraRate	NumFrames	NumMarkers	Units	OrigDataRate	OrigDataStartFrame	OrigNumFrames
100.000000	100.000000	4	54	mm	100.000000	0	642
Frame#	Time	RPSI			LPSI			L3			STRN			T10			C7			CLAV			RBAK			LBAK			LSHO			LUPA			LAEL			LAOL			LWTS			LWPS			LFRA			LIFD			LHPS			LHTS			RSHO			RUPA			RAEL			RAOL			RWTS			RWPS			RFRA			RIFD			RHTS			RHPS			RBHD			LFHD			RFHD			LBHD			LHIP			RASI			LASI			LKNE			LTHI			LANK			LTIP			LTOE			LMT1			LMT5			LHEE			RKNE			RANK			RTIP			RTOE			RMT1			RMT5			RHEE			RHIP			RTHI			*53			
		X1	Y1	Z1	X2	Y2	Z2	X3	Y3	Z3	X4	Y4	Z4	X5	Y5	Z5	X6	Y6	Z6	X7	Y7	Z7	X8	Y8	Z8	X9	Y9	Z9	X10	Y10	Z10	X11	Y11	Z11	X12	Y12	Z12	X13	Y13	Z13	X14	Y14	Z14	X15	Y15	Z15	X16	Y16	Z16	X17	Y17	Z17	X18	Y18	Z18	X19	Y19	Z19	X20	Y20	Z20	X21	Y21	Z21	X22	Y22	Z22	X23	Y23	Z23	X24	Y24	Z24	X25	Y25	Z25	X26	Y26	Z26	X27	Y27	Z27	X28	Y28	Z28	X29	Y29	Z29	X30	Y30	Z30	X31	Y31	Z31	X32	Y32	Z32	X33	Y33	Z33	X34	Y34	Z34	X35	Y35	Z35	X36	Y36	Z36	X37	Y37	Z37	X38	Y38	Z38	X39	Y39	Z39	X40	Y40	Z40	X41	Y41	Z41	X42	Y42	Z42	X43	Y43	Z43	X44	Y44	Z44	X45	Y45	Z45	X46	Y46	Z46	X47	Y47	Z47	X48	Y48	Z48	X49	Y49	Z49	X50	Y50	Z50	X51	Y51	Z51	X52	Y52	Z52	X53	Y53	Z53	X54	Y54	Z54	

1	0	-86.50108337402344	1002.6259765625	1347.313598632812	-69.75064849853516	983.4613037109375	1174.278198242188	-56.04613494873047	1067.364013671875	1258.998046875	208.2492218017578	1228.768432617188	1273.992553710938	-59.46757888793945	1189.559936523438	1256.333862304688	6.789112091064453	1429.778930664062	1241.15625	154.5046691894531	1332.905639648438	1263.5009765625	-62.63682174682617	1299.66650390625	1316.7294921875	-3.654413461685181	1393.16259765625	1135.896240234375	93.01748657226562	1389.99853515625	1094.615966796875	66.23311614990234	1274.527221679688	1019.357543945312	64.41004943847656	1071.777465820312	1003.518737792969	-7.673740386962891	1060.925415039062	1051.027709960938	125.7340240478516	846.550537109375	1060.797485351562	100.8311233520508	836.6681518554688	994.0944213867188	74.87995910644531	967.1532592773438	996.4818725585938	120.4252548217773	659.5277709960938	1059.626098632812	100.4140014648438	748.2767944335938	996.9112548828125	147.7000579833984	747.748291015625	1043.5693359375	62.69889831542969	1401.744750976562	1405.60009765625	50.67800521850586	1344.583374023438	1473.791137695312	53.42922592163086	1075.63330078125	1530.986450195312	2.399018049240112	1068.673461914062	1451.557983398438	141.6355285644531	853.5415649414062	1450.593383789062	116.3825073242188	843.8147583007812	1530.943725585938	81.21445465087891	1007.302307128906	1535.902954101562	143.5891571044922	668.3507080078125	1435.552856445312	172.7538299560547	736.3778686523438	1452.8896484375	136.3109283447266	732.102783203125	1513.101928710938	35.78107833862305	1589.411254882812	1302.673828125	206.9339752197266	1609.942138671875	1178.799560546875	206.7502746582031	1618.250366210938	1270.148681640625	36.16159057617188	1565.048095703125	1158.459106445312	6.893704414367676	933.7611083984375	1091.219848632812	128.6098175048828	951.8644409179688	1402.522094726562	142.1401977539062	944.765869140625	1152.2275390625	179.4312133789062	485.5144348144531	1131.519897460938	138.6890869140625	621.986572265625	1108.957275390625	-61.93633651733398	102.0508575439453	1109.241943359375	62.13525009155273	286.2569274902344	1110.173706054688	121.0226669311523	36.29901885986328	1187.16064453125	47.88954162597656	38.74840927124023	1218.269409179688	53.48894500732422	59.41919326782227	1110.30810546875	-115.1644287109375	107.7132797241211	1161.635009765625	22.87799453735352	477.1629943847656	1409.0771484375	-88.93003845214844	43.12730026245117	1351.453491210938	19.92281341552734	352.6168823242188	1387.938110351562	108.4633941650391	45.06599807739258	1301.215576171875	51.7143669128418	43.23943328857422	1260.965576171875	15.43262195587158	36.15335083007812	1373.008422851562	-141.2431182861328	42.01336669921875	1299.2666015625	8.028393745422363	950.4114990234375	1459.053833007812	55.7330322265625	738.333740234375	1457.497436523438	nan	nan	nan	
2	0.01	-85.43634796142578	1002.377319335938	1347.554077148438	-68.26297760009766	982.9242553710938	1174.567504882812	-54.98548889160156	1067.300659179688	1259.399536132812	209.8443450927734	1228.349365234375	1273.839111328125	-58.07564544677734	1189.652709960938	1256.817138671875	8.626585006713867	1429.74072265625	1241.670166015625	156.1380767822266	1332.533569335938	1263.548583984375	-60.92329025268555	1299.749877929688	1317.263061523438	-2.18615984916687	1393.23974609375	1136.407104492188	94.34700775146484	1389.885375976562	1094.846557617188	67.0086669921875	1274.507690429688	1019.6552734375	64.75336456298828	1071.701049804688	1003.895080566406	-7.121046543121338	1061.017700195312	1051.824951171875	126.3286056518555	846.5868530273438	1060.836547851562	100.9109420776367	836.6381225585938	994.3572998046875	75.00941467285156	967.1201171875	996.8464965820312	121.2269973754883	659.5612182617188	1059.752563476562	100.4902572631836	748.2033081054688	997.2308959960938	148.2129211425781	747.7589721679688	1043.466064453125	64.95984649658203	1401.429565429688	1405.938720703125	53.06697463989258	1344.1552734375	1474.138305664062	56.35673141479492	1075.248657226562	1531.174926757812	4.820322036743164	1068.17333984375	1452.087158203125	144.2529907226562	853.0086669921875	1450.533203125	119.3479309082031	843.3951416015625	1531.067138671875	84.18802642822266	1006.923950195312	1536.066284179688	146.0621795654297	667.8008422851562	1435.791748046875	175.3701171875	735.9034423828125	1452.8388671875	139.2329406738281	731.6398315429688	1513.293823242188	38.3336067199707	1589.225952148438	1303.270385742188	209.0684509277344	1609.25439453125	1178.762451171875	209.2473602294922	1617.576538085938	1270.10595703125	37.99631500244141	1564.972045898438	1159.1171875	8.630630493164062	933.457763671875	1091.43359375	129.7662658691406	951.7575073242188	1402.76953125	143.5782775878906	944.7264404296875	1152.588623046875	185.6464691162109	486.7568664550781	1132.132202148438	143.0587768554688	622.6954345703125	1109.530395507812	-58.40234375	105.3036727905273	1109.978271484375	67.38865661621094	288.2612609863281	1111.03173828125	123.2936477661133	37.05327606201172	1188.429931640625	50.23519897460938	40.39701080322266	1219.398681640625	56.23920822143555	61.02758407592773	1111.376098632812	-111.6576690673828	111.4654312133789	1162.262329101562	24.06789588928223	477.009521484375	1409.286743164062	-88.89621734619141	43.14756774902344	1351.410278320312	20.76319122314453	352.3177490234375	1388.07666015625	108.5001602172852	44.99358749389648	1301.264282226562	51.70977401733398	43.1932487487793	1260.992431640625	15.44016742706299	36.05526733398438	1373.009033203125	-141.1843719482422	42.16445159912109	1299.234130859375	8.20273494720459	950.6592407226562	1459.763671875	57.18632125854492	738.0374145507812	1457.549194335938	nan	nan	nan	
3	0.02	-84.00950622558594	1002.093566894531	1347.816528320312	-66.36354064941406	982.3714599609375	1174.857177734375	-53.53755950927734	1067.228515625	1259.871215820312	211.8726501464844	1227.869995117188	1273.657958984375	-56.28704071044922	1189.7666015625	1257.408203125	10.94363880157471	1429.689331054688	1242.287841796875	158.2141418457031	1332.111083984375	1263.602416992188	-58.76330184936523	1299.867797851562	1317.936157226562	-0.3042418658733368	1393.326293945312	1137.017822265625	96.05023193359375	1389.767578125	1095.113159179688	68.01351165771484	1274.505737304688	1020.001220703125	65.16259002685547	1071.63427734375	1004.335388183594	-6.425048351287842	1061.163696289062	1052.804443359375	127.069580078125	846.6578979492188	1060.882690429688	100.9969253540039	836.61279296875	994.6849975585938	75.18218231201172	967.0975952148438	997.2769775390625	122.2161483764648	659.6351928710938	1059.958618164062	100.5891723632812	748.13134765625	997.6441040039062	148.8608093261719	747.8074340820312	1043.354858398438	67.79347229003906	1401.0615234375	1406.347045898438	56.07021713256836	1343.65625	1474.55419921875	60.020263671875	1074.776245117188	1531.385131835938	7.927469253540039	1067.55029296875	1452.679809570312	147.6282806396484	852.4118041992188	1450.443359375	123.1413955688477	842.92578125	1531.18115234375	87.92294311523438	1006.473693847656	1536.237670898438	149.2859191894531	667.1773071289062	1436.107299804688	178.7744903564453	735.3668823242188	1452.790893554688	142.9984436035156	731.1405639648438	1513.5205078125	41.57818222045898	1589.032104492188	1303.994873046875	211.8043212890625	1608.406494140625	1178.7001953125	212.4396362304688	1616.726318359375	1270.036499023438	40.3821907043457	1564.917114257812	1159.891357421875	10.84412956237793	933.1412963867188	1091.698364257812	131.2964477539062	951.62060546875	1403.137451171875	145.4641265869141	944.68896484375	1153.052001953125	193.2866058349609	488.3637390136719	1132.859008789062	148.4904937744141	623.637939453125	1110.189453125	-53.4612922668457	108.909553527832	1111.031860351562	74.08983612060547	290.6202392578125	1112.128540039062	126.8152160644531	38.1656494140625	1190.385009765625	53.75697708129883	42.52786254882812	1221.076904296875	60.35618209838867	62.96375274658203	1112.9697265625	-106.825813293457	115.6826400756836	1163.126586914062	25.55625343322754	476.7843933105469	1409.533081054688	-88.85247039794922	43.18076705932617	1351.356079101562	21.85751914978027	351.9464111328125	1388.239379882812	108.5438537597656	44.90657806396484	1301.322509765625	51.73312377929688	43.16232299804688	1261.040405273438	15.45792961120605	35.95353698730469	1373.018310546875	-141.1108856201172	42.33456802368164	1299.216186523438	8.617366790771484	950.8934326171875	1460.579833984375	58.99287033081055	737.658935546875	1457.626342773438	nan	nan	nan	
4	0.03	-82.23130035400391	1001.793090820312	1348.068725585938	-64.09885406494141	981.8732299804688	1175.110229492188	-51.70228958129883	1067.15234375	1260.38037109375	214.2672882080078	1227.373046875	1273.465087890625	-54.1542854309082	1189.894287109375	1258.081787109375	13.65203666687012	1429.624755859375	1242.96923828125	160.6624450683594	1331.6787109375	1263.659057617188	-56.23119735717773	1300.010498046875	1318.713134765625	1.930100560188293	1393.41259765625	1137.690551757812	98.07622528076172	1389.658325195312	1095.3935546875	69.22112274169922	1274.531860351562	1020.369812011719	65.617919921875	1071.593139648438	1004.805419921875	-5.611144065856934	1061.369140625	1053.906982421875	127.9179306030273	846.76904296875	1060.933349609375	101.083137512207	836.5973510742188	995.059814453125	75.39716339111328	967.0948486328125	997.7408447265625	123.3332901000977	659.756103515625	1060.259521484375	100.7078552246094	748.0711669921875	998.1385498046875	149.603759765625	747.9005737304688	1043.254516601562	71.07958984375	1400.667724609375	1406.800048828125	59.56497955322266	1343.127563476562	1475.011962890625	64.26559448242188	1074.245727539062	1531.598388671875	11.62442588806152	1066.843872070312	1453.279663085938	151.6685791015625	851.81005859375	1450.31494140625	127.6432800292969	842.4518432617188	1531.2626953125	92.27080535888672	1005.985900878906	1536.400024414062	153.19873046875	666.5374145507812	1436.476806640625	182.8849639892578	734.8218994140625	1452.743774414062	147.5072326660156	730.6626586914062	1513.761352539062	45.40089797973633	1588.85595703125	1304.801147460938	215.0541229248047	1607.438720703125	1178.608032226562	216.2216949462891	1615.732177734375	1269.937377929688	43.2596549987793	1564.90625	1160.723266601562	13.47545719146729	932.8613891601562	1091.9970703125	133.1762847900391	951.4539184570312	1403.62548828125	147.7564239501953	944.6616821289062	1153.605590820312	201.9529113769531	490.2890319824219	1133.652954101562	154.7300567626953	624.7981567382812	1110.8759765625	-47.05202865600586	112.4724655151367	1112.42236328125	82.03890228271484	293.1481628417969	1113.428466796875	131.7818145751953	39.64693450927734	1193.088500976562	58.62637710571289	45.03543472290039	1223.348388671875	66.00555419921875	65.07040405273438	1115.132934570312	-100.6345062255859	119.9252853393555	1164.22900390625	27.2788143157959	476.488037109375	1409.80322265625	-88.80081939697266	43.22896575927734	1351.29443359375	23.17255210876465	351.5210266113281	1388.413940429688	108.5922393798828	44.81201171875	1301.384521484375	51.80615615844727	43.16850662231445	1261.118041992188	15.48908042907715	35.86197662353516	1373.037353515625	-141.0259552001953	42.50908279418945	1299.216674804688	9.371237754821777	951.0528564453125	1461.405029296875	61.06096649169922	737.2111206054688	1457.738159179688	nan	nan	nan	
